<svg id="Capa_1" data-name="Capa 1" xmlns="http://www.w3.org/2000/svg" viewBox="0 0 477.58 120.06"><defs><style>.cls-1{fill:#fcf5f5;}.cls-2{fill:#f0e2ca;}.cls-3{fill:#c1655b;}.cls-4{fill:#c4b7a5;}.cls-5{fill:#9f5d55;}.cls-6{fill:#d59182;}.cls-7{fill:#6b3734;}</style></defs><path class="cls-1" d="M329.11,88.24h2.46v23.43h-58v-2.46h6.17V45.08h-6.17V42.61h32.07v2.47h-7.4v64.13h12.33a33,33,0,0,0,7-.62,17,17,0,0,0,5.73-2.59Q329.12,102.18,329.11,88.24Z" transform="translate(-30.85 -29.04)"/><path class="cls-1" d="M367.21,112.91A33,33,0,0,1,346,105.26q-9.5-7.65-9.49-21.71a31.32,31.32,0,0,1,2.77-13.44,24.25,24.25,0,0,1,7.4-9.37,35.35,35.35,0,0,1,9.93-5.24,33.77,33.77,0,0,1,10.85-1.79,34.42,34.42,0,0,1,10.92,1.79,35.4,35.4,0,0,1,10,5.24,24.75,24.75,0,0,1,7.46,9.37,30.47,30.47,0,0,1,2.83,13.32,29.7,29.7,0,0,1-2.83,13.2,24.71,24.71,0,0,1-7.53,9.25A34.28,34.28,0,0,1,367.21,112.91Zm-9.12-8.7q2.71,6.23,9.37,6.23t9.5-6.29q2.84-6.29,2.83-20.78T377,62.53q-2.83-6.36-9.5-6.35t-9.37,6.35q-2.71,6.34-2.71,20.9T358.09,104.21Z" transform="translate(-30.85 -29.04)"/><path class="cls-1" d="M432,109.21h6.17v2.46H407.3v-2.46h6.16V31.51H407.3V29H432Z" transform="translate(-30.85 -29.04)"/><path class="cls-1" d="M501.89,111.36a31.06,31.06,0,0,1-8,.93q-10.11,0-12.7-6-6.17,6.41-18.87,6.41a18.64,18.64,0,0,1-11.16-3.15q-4.38-3.14-4.38-9.31a14.69,14.69,0,0,1,6.41-12.76q6.42-4.5,22.45-6.35l4.93-.62v-6c0-7.15-.53-12-1.6-14.43s-3.19-3.7-6.35-3.7-5.2.43-6.11,1.29a3,3,0,0,0-1,3q.36,1.66,1.23,4.38a15.36,15.36,0,0,1,.86,4.32,9,9,0,0,1-9.06,9.12,8.94,8.94,0,0,1-6.48-2.65,8.68,8.68,0,0,1-2.71-6.47q0-6.3,6.47-10.79T475.19,54q12.88,0,18.37,5t5.49,17.88v22.2q0,6.54,1.6,8.2t5.92.68v1.24A10.73,10.73,0,0,1,501.89,111.36ZM467.36,105a9.57,9.57,0,0,0,6.59,2.53q3.76,0,6.6-3.7v-21l-4.44.62a15.18,15.18,0,0,0-9.19,4.32q-3.51,3.57-3,10A11.17,11.17,0,0,0,467.36,105Z" transform="translate(-30.85 -29.04)"/><path class="cls-1" d="M271.91,139.66V125.91h4.86a5.07,5.07,0,0,1,3.38,1,3.37,3.37,0,0,1,1.1,2.69,3.27,3.27,0,0,1-.65,2,3,3,0,0,1-1.87,1.09v0a3.41,3.41,0,0,1,2.11,1.1,3.17,3.17,0,0,1,.79,2.17,3.25,3.25,0,0,1-1.25,2.71,5.73,5.73,0,0,1-3.61,1Zm1-7.42h3.83c2.24,0,3.36-.89,3.36-2.69s-1.12-2.68-3.36-2.68H273Zm0,6.47h4a4.19,4.19,0,0,0,2.65-.71,2.49,2.49,0,0,0,.89-2.05,2.46,2.46,0,0,0-.89-2,4.19,4.19,0,0,0-2.65-.7h-4Z" transform="translate(-30.85 -29.04)"/><path class="cls-1" d="M294.42,132.81a2.88,2.88,0,0,0-.73-2.11,2.76,2.76,0,0,0-2.08-.75,3.91,3.91,0,0,0-2,.51,3.09,3.09,0,0,0-1.28,1.7l-.85-.54a3.77,3.77,0,0,1,1.53-1.91,4.91,4.91,0,0,1,2.66-.68,4.71,4.71,0,0,1,2,.41,3,3,0,0,1,1.35,1.2,3.87,3.87,0,0,1,.47,2v5.21c0,.74.34,1.1,1,1.1a1.73,1.73,0,0,0,.75-.14l-.07.83a1.86,1.86,0,0,1-.91.19,2.11,2.11,0,0,1-.9-.19,1.5,1.5,0,0,1-.68-.62,2.36,2.36,0,0,1-.26-1.19v-.56l.29,0a2.79,2.79,0,0,1-.82,1.49,4,4,0,0,1-1.47.87,5.13,5.13,0,0,1-1.67.28,4.62,4.62,0,0,1-1.75-.31,2.8,2.8,0,0,1-1.21-.91,2.39,2.39,0,0,1-.43-1.47,2.44,2.44,0,0,1,.78-1.88,4.37,4.37,0,0,1,2.2-1l4.31-.86v.88l-3.79.75a4.35,4.35,0,0,0-1.84.73,1.74,1.74,0,0,0,0,2.66,3.07,3.07,0,0,0,1.84.49,4.86,4.86,0,0,0,1.23-.17,3.81,3.81,0,0,0,1.16-.53,2.84,2.84,0,0,0,.84-.92,2.68,2.68,0,0,0,.31-1.34Z" transform="translate(-30.85 -29.04)"/><path class="cls-1" d="M302.63,139.66V129.24h.88l.12,2.19a3.63,3.63,0,0,1,1.28-1.75A3.43,3.43,0,0,1,307,129a2.86,2.86,0,0,1,.75.09,1.15,1.15,0,0,1,.54.27l-.23.91a2.05,2.05,0,0,0-.5-.22,2.73,2.73,0,0,0-.81-.09,2.63,2.63,0,0,0-1.5.49,3.68,3.68,0,0,0-1.15,1.36,4.35,4.35,0,0,0-.43,2v5.83Z" transform="translate(-30.85 -29.04)"/><path class="cls-1" d="M314.31,127.22a.82.82,0,1,1,.63-.24A.86.86,0,0,1,314.31,127.22Zm.52,2v10.42h-1V129.24Z" transform="translate(-30.85 -29.04)"/><path class="cls-1" d="M325.33,139.87a5.9,5.9,0,0,1-2.8-.64,3.62,3.62,0,0,1-1.72-1.86l.9-.6a3,3,0,0,0,1.34,1.61,4.6,4.6,0,0,0,2.37.58,3.74,3.74,0,0,0,2.15-.55,1.67,1.67,0,0,0,.78-1.43,1.55,1.55,0,0,0-.38-1.06,2.68,2.68,0,0,0-1.45-.68l-2.44-.52a3.86,3.86,0,0,1-2.14-1,2.43,2.43,0,0,1-.63-1.7,2.48,2.48,0,0,1,.5-1.5,3.47,3.47,0,0,1,1.39-1.07,5.57,5.57,0,0,1,4.65.21,3.31,3.31,0,0,1,1.44,1.84l-.87.57a2.6,2.6,0,0,0-1.16-1.61,3.87,3.87,0,0,0-2-.5,4.19,4.19,0,0,0-1.53.26,2.45,2.45,0,0,0-1,.71,1.55,1.55,0,0,0-.37,1,1.67,1.67,0,0,0,.42,1.1,2.66,2.66,0,0,0,1.48.71l2.5.55a3.81,3.81,0,0,1,2.06.95,2.22,2.22,0,0,1,.59,1.57,2.74,2.74,0,0,1-.5,1.63,3.29,3.29,0,0,1-1.42,1A5.87,5.87,0,0,1,325.33,139.87Z" transform="translate(-30.85 -29.04)"/><path class="cls-1" d="M341.21,129.24v.9h-7v-.9Zm-3.89-2.9v10.57a2.08,2.08,0,0,0,.47,1.49,1.74,1.74,0,0,0,1.36.51,2.56,2.56,0,0,0,1-.19,2.53,2.53,0,0,0,.8-.58l.4.86a3,3,0,0,1-1,.63,3.61,3.61,0,0,1-1.35.24,3.25,3.25,0,0,1-1.44-.3,2.13,2.13,0,0,1-1-.93,3.21,3.21,0,0,1-.35-1.58V126.64Z" transform="translate(-30.85 -29.04)"/><path class="cls-1" d="M353.09,132.81a2.92,2.92,0,0,0-.72-2.11,2.8,2.8,0,0,0-2.09-.75,3.91,3.91,0,0,0-2,.51,3,3,0,0,0-1.27,1.7l-.86-.54a3.77,3.77,0,0,1,1.53-1.91,4.94,4.94,0,0,1,2.66-.68,4.65,4.65,0,0,1,2,.41,3,3,0,0,1,1.35,1.2,3.77,3.77,0,0,1,.48,2v5.21c0,.74.33,1.1,1,1.1a1.73,1.73,0,0,0,.75-.14l-.07.83a1.86,1.86,0,0,1-.91.19,2.11,2.11,0,0,1-.9-.19,1.5,1.5,0,0,1-.68-.62,2.36,2.36,0,0,1-.26-1.19v-.56l.3,0a2.8,2.8,0,0,1-.83,1.49,4,4,0,0,1-1.47.87,5.08,5.08,0,0,1-1.66.28,4.64,4.64,0,0,1-1.76-.31,2.71,2.71,0,0,1-1.2-.91,2.34,2.34,0,0,1-.44-1.47,2.44,2.44,0,0,1,.78-1.88,4.37,4.37,0,0,1,2.2-1l4.31-.86v.88l-3.79.75a4.24,4.24,0,0,0-1.83.73,1.57,1.57,0,0,0-.61,1.31,1.61,1.61,0,0,0,.65,1.35,3,3,0,0,0,1.83.49,4.86,4.86,0,0,0,1.23-.17,3.81,3.81,0,0,0,1.16-.53,2.84,2.84,0,0,0,.84-.92,2.68,2.68,0,0,0,.31-1.34Z" transform="translate(-30.85 -29.04)"/><path class="cls-1" d="M375.46,125.91a5.75,5.75,0,0,1,2.48.49,3.76,3.76,0,0,1,1.61,1.38,4.31,4.31,0,0,1,0,4.32,3.69,3.69,0,0,1-1.61,1.38,5.75,5.75,0,0,1-2.48.49h-3.52v5.69h-1.05V125.91Zm-.13,7.08a4.13,4.13,0,0,0,2.76-.8,3.21,3.21,0,0,0,0-4.52,4.13,4.13,0,0,0-2.76-.8h-3.39V133Z" transform="translate(-30.85 -29.04)"/><path class="cls-1" d="M386.09,139.66V129.24H387l.13,2.19a3.61,3.61,0,0,1,1.27-1.75,3.43,3.43,0,0,1,2.1-.65,3,3,0,0,1,.76.09,1.15,1.15,0,0,1,.54.27l-.23.91a2.24,2.24,0,0,0-.5-.22,2.76,2.76,0,0,0-.82-.09,2.68,2.68,0,0,0-1.5.49,3.57,3.57,0,0,0-1.14,1.36,4.35,4.35,0,0,0-.44,2v5.83Z" transform="translate(-30.85 -29.04)"/><path class="cls-1" d="M401,129a5.1,5.1,0,0,1,2.58.65,4.53,4.53,0,0,1,1.75,1.87,7,7,0,0,1,0,5.81,4.59,4.59,0,0,1-1.75,1.87,5.09,5.09,0,0,1-2.58.64,5,5,0,0,1-2.57-.64,4.46,4.46,0,0,1-1.75-1.87,6.91,6.91,0,0,1,0-5.81,4.4,4.4,0,0,1,1.75-1.87A5,5,0,0,1,401,129Zm0,.9a3.84,3.84,0,0,0-2.06.54,3.64,3.64,0,0,0-1.37,1.55,6.25,6.25,0,0,0,0,4.85,3.61,3.61,0,0,0,1.37,1.56,4.13,4.13,0,0,0,4.12,0,3.61,3.61,0,0,0,1.37-1.56,6.25,6.25,0,0,0,0-4.85,3.64,3.64,0,0,0-1.37-1.55A3.84,3.84,0,0,0,401,129.93Z" transform="translate(-30.85 -29.04)"/><path class="cls-1" d="M417.44,129.24v.9h-6.8v-.9Zm-1.61-4.9a3,3,0,0,1,1,.15,1.68,1.68,0,0,1,.69.42l-.29.83a1.57,1.57,0,0,0-.59-.35,2.24,2.24,0,0,0-.73-.11,2.1,2.1,0,0,0-1.58.59,2.4,2.4,0,0,0-.56,1.73v12.06h-1V127.49a4.06,4.06,0,0,1,.19-1.29,2.61,2.61,0,0,1,.6-1,2.83,2.83,0,0,1,1-.64A3.67,3.67,0,0,1,415.83,124.34Z" transform="translate(-30.85 -29.04)"/><path class="cls-1" d="M426.57,139.87a5.08,5.08,0,0,1-2.57-.64,4.48,4.48,0,0,1-1.76-1.87,7,7,0,0,1,0-5.81,4.53,4.53,0,0,1,1.72-1.87,4.75,4.75,0,0,1,2.48-.65,4.45,4.45,0,0,1,2.42.63,4.13,4.13,0,0,1,1.54,1.74,5.82,5.82,0,0,1,.54,2.57c0,.13,0,.25,0,.37a2.91,2.91,0,0,1,0,.32h-8.65v-.94h8.19l-.52.15A4.25,4.25,0,0,0,429,131a3.21,3.21,0,0,0-2.55-1.06,3.71,3.71,0,0,0-2,.53,3.59,3.59,0,0,0-1.33,1.54,5.66,5.66,0,0,0-.48,2.43,5.5,5.5,0,0,0,.49,2.42,3.47,3.47,0,0,0,1.37,1.55,3.88,3.88,0,0,0,2.06.54,3.93,3.93,0,0,0,2.07-.53A3.49,3.49,0,0,0,430,137l.84.48a4.18,4.18,0,0,1-1,1.28,4.65,4.65,0,0,1-1.44.82A5.13,5.13,0,0,1,426.57,139.87Z" transform="translate(-30.85 -29.04)"/><path class="cls-1" d="M440.72,139.87a5.94,5.94,0,0,1-2.81-.64,3.6,3.6,0,0,1-1.71-1.86l.89-.6a3,3,0,0,0,1.35,1.61,4.56,4.56,0,0,0,2.36.58,3.75,3.75,0,0,0,2.16-.55,1.67,1.67,0,0,0,.78-1.43,1.56,1.56,0,0,0-.39-1.06,2.64,2.64,0,0,0-1.44-.68l-2.44-.52a3.83,3.83,0,0,1-2.14-1,2.56,2.56,0,0,1-.13-3.2,3.51,3.51,0,0,1,1.38-1.07,5.59,5.59,0,0,1,4.66.21,3.31,3.31,0,0,1,1.44,1.84l-.88.57a2.59,2.59,0,0,0-1.15-1.61,3.89,3.89,0,0,0-2-.5,4.24,4.24,0,0,0-1.54.26,2.59,2.59,0,0,0-1,.71,1.6,1.6,0,0,0-.36,1,1.71,1.71,0,0,0,.41,1.1,2.69,2.69,0,0,0,1.48.71l2.51.55a3.84,3.84,0,0,1,2.06.95,2.21,2.21,0,0,1,.58,1.57,2.67,2.67,0,0,1-.5,1.63,3.18,3.18,0,0,1-1.42,1A5.81,5.81,0,0,1,440.72,139.87Z" transform="translate(-30.85 -29.04)"/><path class="cls-1" d="M451.49,127.22a.83.83,0,1,1,.64-.24A.85.85,0,0,1,451.49,127.22Zm.52,2v10.42h-1V129.24Z" transform="translate(-30.85 -29.04)"/><path class="cls-1" d="M463.25,129a5,5,0,0,1,2.57.65,4.4,4.4,0,0,1,1.75,1.87,6.91,6.91,0,0,1,0,5.81,4.46,4.46,0,0,1-1.75,1.87,5,5,0,0,1-2.57.64,5.09,5.09,0,0,1-2.58-.64,4.59,4.59,0,0,1-1.75-1.87,7,7,0,0,1,0-5.81,4.53,4.53,0,0,1,1.75-1.87A5.1,5.1,0,0,1,463.25,129Zm0,.9a3.84,3.84,0,0,0-2.06.54,3.64,3.64,0,0,0-1.37,1.55,6.25,6.25,0,0,0,0,4.85,3.61,3.61,0,0,0,1.37,1.56,4.13,4.13,0,0,0,4.12,0,3.61,3.61,0,0,0,1.37-1.56,6.25,6.25,0,0,0,0-4.85,3.64,3.64,0,0,0-1.37-1.55A3.84,3.84,0,0,0,463.25,129.93Z" transform="translate(-30.85 -29.04)"/><path class="cls-1" d="M474.46,139.66V129.24h.94l.08,2.61-.16-.15a3.73,3.73,0,0,1,.87-1.45,3.88,3.88,0,0,1,1.4-.9,4.78,4.78,0,0,1,1.75-.32,4.66,4.66,0,0,1,2.06.44,3.26,3.26,0,0,1,1.41,1.29,4.15,4.15,0,0,1,.51,2.15v6.75h-1v-6.42a3.26,3.26,0,0,0-.85-2.5,3.06,3.06,0,0,0-2.2-.79,3.8,3.8,0,0,0-1.82.45,3.56,3.56,0,0,0-1.37,1.3,3.85,3.85,0,0,0-.54,2.09v5.87Z" transform="translate(-30.85 -29.04)"/><path class="cls-1" d="M496.58,132.81a2.92,2.92,0,0,0-.73-2.11,2.8,2.8,0,0,0-2.09-.75,3.91,3.91,0,0,0-2,.51,3.07,3.07,0,0,0-1.27,1.7l-.86-.54a3.77,3.77,0,0,1,1.53-1.91,4.94,4.94,0,0,1,2.66-.68,4.65,4.65,0,0,1,2,.41,3,3,0,0,1,1.35,1.2,3.77,3.77,0,0,1,.48,2v5.21c0,.74.33,1.1,1,1.1a1.73,1.73,0,0,0,.75-.14l-.06.83a1.93,1.93,0,0,1-.92.19,2.11,2.11,0,0,1-.9-.19,1.43,1.43,0,0,1-.67-.62,2.26,2.26,0,0,1-.27-1.19v-.56l.3,0a2.8,2.8,0,0,1-.83,1.49,4,4,0,0,1-1.47.87,5.08,5.08,0,0,1-1.66.28,4.55,4.55,0,0,1-1.75-.31,2.69,2.69,0,0,1-1.21-.91,2.34,2.34,0,0,1-.44-1.47,2.44,2.44,0,0,1,.78-1.88,4.37,4.37,0,0,1,2.2-1l4.31-.86v.88l-3.79.75a4.24,4.24,0,0,0-1.83.73,1.57,1.57,0,0,0-.61,1.31,1.61,1.61,0,0,0,.65,1.35A3,3,0,0,0,493,139a4.74,4.74,0,0,0,1.23-.17,3.81,3.81,0,0,0,1.16-.53,2.84,2.84,0,0,0,.84-.92,2.68,2.68,0,0,0,.32-1.34Z" transform="translate(-30.85 -29.04)"/><path class="cls-1" d="M505.75,124.45V137.2a2.15,2.15,0,0,0,.33,1.36,1.3,1.3,0,0,0,1,.4,3.15,3.15,0,0,0,.7-.07,4.12,4.12,0,0,0,.62-.21l-.15.92a3.22,3.22,0,0,1-.62.2,3.51,3.51,0,0,1-.76.07,2.07,2.07,0,0,1-1.65-.63,3,3,0,0,1-.56-2v-12.8Z" transform="translate(-30.85 -29.04)"/><path class="cls-2" d="M104.05,38.1a66.2,66.2,0,0,1,32.62-9c18.81-.11,28.82,2.53,28.82,2.53L168,34.91l-5.56,2.9-58.41,3Z" transform="translate(-30.85 -29.04)"/><path class="cls-2" d="M157.49,33.36c2.81-2.94,7-2.5,9.43-1.19,9.88,5.24,21.26,9.5,21.87,23.55.15,3.25,2.88,4,5.4,4.67,10,2.8,18.59,9.34,28.95,11.38a4.44,4.44,0,0,1,3.9,4c-4.41-1.5-8.17-4.81-13.15-4.73l-7.2-.1c-12.76.57-22.06,8.38-31.24,15.78-3.63,2.93-4.66,8.29-2.33,13.27a1.51,1.51,0,0,0-.18.88c-2.3.66-5-.36-7,1.52-3.84-.34-7.81-1-9.53,3.87-2.8.78-3.94,4.25-7.12,4.41a10.83,10.83,0,0,0-11.05-4.1,17.08,17.08,0,0,1-8.1-.23c-2.57-.7-5.77-1.22-7.66,1.52-2.14,3.08.8,5,2.23,7.21-3.25,2.51-6.57,2.26-9.9.2-9.46-5.86-18.83-11.86-28.39-17.54a9.35,9.35,0,0,1-4.84-8.07c-2,.76-2.33,4-5,2.16-2.92-2-6.71-2.67-8.79-5.92,1.7-4.44,3.58-8.75,8.06-11.23,2.48-1.37.59-2.82.19-4.45-2.14-8.82-4.56-17.34,2.87-25.61,3.85-4.3,8-3.79,11.75-3,5.44,1.13,9.67.69,13.44-3.52,1.6-1.78,3.68-2.38,5.69-.29L108.37,40l.06-.06a13.32,13.32,0,0,0-2,22.41c3.15,2.49,6.42,4.6,10.49,5.17l2.24.27c.64,2.19,2.7,2.15,4.32,2.56a72,72,0,0,0,30,1c8.12-1.4,16.4-2.8,22.19-9.69l0,0,1.28-1.24,0,.09c4.66-2.79,7.48-6.27,4.48-11.93-1.52-6.38-6.61-9.12-12-11.33C165.46,35.73,161.43,34.66,157.49,33.36ZM92.89,64.07c1.42-.86,1.14-1.72,0-2.57-.37-.71-.7-1.43-1.11-2.11-1.55-2.62-2.76-7.51-5.65-6.56-3.71,1.23-2.41,5.75-1.79,9.37C85.76,70.48,89.81,64.62,92.89,64.07Zm2,2.79c-2.41,7.61-.68,14.69,3,21.48C98.44,81,94.87,74.21,94.9,66.86Zm8.47,30.35c1.25,5.48,5,8,10.24,8.66C110.28,102.91,106.57,100.43,103.37,97.21Z" transform="translate(-30.85 -29.04)"/><path class="cls-3" d="M213.89,71c5-.08,8.74,3.23,13.15,4.73a1,1,0,0,0,.86.39l.57,1.66c-.56.53-1,1.26-1.68,1.57-1.47.68-3.08,1.19-3.06,3.16,0,1.15.92,1.67,2,1.75,1.86.15,3.59,0,4.53-2,.42-.88.88-1.74,1.32-2.6h1.27q2,3.51,3.92,7c.08,4.29.28,8.61-2.49,12.33l-1.69,2-15.17,10.86c-5.58,1.22-11.14,2-16.77.14-1.57-.51-3.26-.41-3.06,2.07-2,.39-3.24,1.47-2.62,3.67.79,2.77,3.09,2.51,5.26,2.39,2.06,2,1.91,4.63,1.92,7.19-6.51,1.51-7.32,3.11-4.46,8.75.53,1.05,1,2.14,1.45,3.22-.1,2.87-2.36,3.94-4.38,5.17-13.48,8.15-29.75,5.35-42.26-7.27,1-2.71,2-5.4,1.27-8.37,3.37-.33,7.61.72,7.41-5-.12-3.45-1.57-5.67-5.2-5.86-4.37-.22-5.89,2.34-5.82,6.3-4.32-1-3.12-4.56-3.52-7.39q1.31-3.12,2.63-6.24c3.18-.16,4.32-3.63,7.12-4.41.69,3.52,3,3.38,5.79,2.81,4-.82,4-3.62,3.74-6.68,2-1.88,4.71-.86,7-1.52,2.86,2.5,5.84,1.55,10.48.4-4.34-1.84-7.39-1.07-10.3-1.28-2.33-5-1.3-10.34,2.33-13.27,9.18-7.4,18.48-15.21,31.24-15.78A5.3,5.3,0,0,1,205,74.63c-1.1,1.15-2.47,2.43-1.38,4.12s2.83,2.07,4.72,2C214.59,80.39,216.28,77.44,213.89,71Zm-19.35,37.45.65,1.39c.14-.11.4-.29.38-.33-.22-.44-.49-.87-.75-1.3s-.41-1-.62-1.46c-.15.11-.43.29-.41.33C194,107.59,194.28,108,194.54,108.49Zm-13.34,9.39c3.71.6,3.88-1.82,4.07-4.37.35-4.75-3.76-3.14-5.81-3.72a3.77,3.77,0,0,0-4.83,3.84C174.87,117.43,178.42,117.5,181.2,117.88Zm27.47-28.67c-1.6.12-4,1.24-4.24,4.68-.15,2.06,1,3.89,3.11,3.32,3-.82,7.52-.53,8-4.67C215.81,89.94,212.73,89.14,208.67,89.21Zm-21.8,8.4c1.5-.28,4.12.57,3.84-2.22s-2.54-3.85-5.24-3.78c-2,0-3.81.78-3.66,3C182,97.62,184.52,97.55,186.87,97.61Zm-8.36,32.09a2.9,2.9,0,0,0,2.87-3c.14-1.64-.6-2.72-2.38-2.72s-3.11.92-3.21,2.8C175.7,128.4,176.66,129.4,178.51,129.7Zm47.43-32.17a3.24,3.24,0,0,0,3.4-3.18c.12-1.25-.28-2.57-1.72-2.52a4,4,0,0,0-3.94,3.64C223.41,97,224.52,97.47,225.94,97.53Zm-21.44,6c-1.5.18-3.46-.28-3.57,2.05a2.46,2.46,0,0,0,2.64,2.61,3.4,3.4,0,0,0,3.56-2.58C207.68,103.36,205.74,103.74,204.5,103.49Zm-19.94-1.56c1.56,1.75,2.86,2,4.81.76C187.86,101.31,186.65,100.69,184.56,101.93Z" transform="translate(-30.85 -29.04)"/><path class="cls-3" d="M157.49,33.36c3.94,1.3,8,2.37,11.8,4,5.37,2.21,10.46,4.95,12,11.33-.72,4.27-3,8-4.48,11.93l0-.09-1.28,1.24,0,0c-1.15.2-2.52.08-3.42.67-10.74,7.12-22.79,7.69-35.14,7.83-6.19.06-12-1.17-17.92-2.36l-2.24-.27c-1.06-2.37-3.36-3.31-5.32-4.64-9.11-6.15-10-10.42-4.39-19.68A18.81,18.81,0,0,0,108.43,40l-.06.06c1.78.14,3.43.09,3.73-2.23l1.18-1.29,14.55-4.36,10.58-.38,6,.08,5.78.34a2.32,2.32,0,0,0,2.58.49ZM118.05,58.15c1.79.4,3.78-.7,5.52-2.56,3.25-3.47,6.58-6.78,11-9,2-1,4.41-2.76,3.4-5.58-.88-2.47-3.42-3.36-5.87-3.25a32.26,32.26,0,0,0-20.71,9c-2.48,2.26-1.65,5.4-.53,8.35C112,58.31,114.63,58.07,118.05,58.15Z" transform="translate(-30.85 -29.04)"/><path class="cls-4" d="M146.65,116.91c.4,2.83-.8,6.42,3.52,7.38.52,2.06,2,3.35,3.61,4.56.77,3-.31,5.66-1.27,8.37-6.59-.08-13,2.64-19.73,1.14-3.88-.86-7.61-1.77-11-3.88-5.24-12.42-18.28-14.39-28.81-19.71l.94-1.6,5,1.23c.66.31,1.32.63,2,.89,0,0,.28-.43.42-.66l-2.24-.44c-1.89-4.77-6.23-6.58-10.46-8.31-1.92-.78-1.19,1.25-1.38,2.18a6.88,6.88,0,0,1-.54.54C81.1,102.44,74.79,97.4,66.6,95.14c-6.11-4.68-14.18-5.25-20.4-9.69,1.49-2.11,3.81,1.22,5.42-.91-.18-.46-.25-1.33-.58-1.44a104.32,104.32,0,0,1-15.83-6.42c-1.58-.83-1.87.78-2.13,1.94-1.59-.36-2.44-1.28-2.19-3s1.67-2,3.11-2.08c5.56-.32,10.43,2,15.35,4.09C55.53,80.3,61,84.47,67.74,85.9c2.08,3.25,5.87,3.94,8.79,5.92,2.71,1.85,3-1.4,5-2.16a9.35,9.35,0,0,0,4.84,8.07c9.56,5.68,18.93,11.68,28.39,17.54,3.33,2.06,6.65,2.31,9.9-.2,2.13,1.05,4.53,1.08,6.72,1.72C136.56,118.31,141.62,114.17,146.65,116.91ZM137.57,134l-8.69-1.34C131.49,135.42,134.34,136.22,137.57,134Z" transform="translate(-30.85 -29.04)"/><path class="cls-2" d="M87.21,108.06c.19-.93-.54-3,1.38-2.18,4.23,1.73,8.57,3.54,10.46,8.31l-.18.21-5-1.23-.94,1.6c10.53,5.32,23.57,7.29,28.81,19.71a3.29,3.29,0,0,1-3.14,1.35c-9.21-1.39-18.52-2.43-27-6.74-4.16-2.12-9.14-2.26-12.73-5.92-1.41-1.43-2.64.94-3.76,1.94a14.53,14.53,0,0,0-4-7.57c.61-5.16-2.53-9.41-3.93-14-.93-3-.75-5.58-.63-8.4,8.19,2.26,14.5,7.3,20.07,13.46.66,2.45,2.14,3.64,5.46,3.72C90.6,109.81,89.25,108.54,87.21,108.06Z" transform="translate(-30.85 -29.04)"/><path class="cls-5" d="M78,123.29c-.17,3.29-1.24,5.81-5,6.14-4.15.36-8.42,1.12-10.82-3.67,0-.81-.06-1.63-.1-2.44-.53-1.27-1.16-2.51-1.58-3.81-1.47-4.53,1-7.51,5.76-6.58,2.66.53,5.18,1.84,7.76,2.79A14.6,14.6,0,0,1,78,123.29Z" transform="translate(-30.85 -29.04)"/><path class="cls-5" d="M86.71,143.38c-3.43-.91-8.76-.75-8.64-6.36.09-4.38,4.63-4.38,7.93-4.32,4,.06,9,.85,9.26,5.5C95.5,142.29,91.12,143.4,86.71,143.38Z" transform="translate(-30.85 -29.04)"/><path class="cls-2" d="M197.6,114.1c-.2-2.48,1.49-2.58,3.06-2.07,5.63,1.85,11.19,1.08,16.77-.14-2.57,4.38-5.05,8.7-10.08,11-1.8.82-2.92,3.13-4.35,4.75a3,3,0,0,0-.84-.28c0-2.56.14-5.17-1.92-7.19C200.17,117.79,199.68,115.6,197.6,114.1Z" transform="translate(-30.85 -29.04)"/><path class="cls-5" d="M202.16,127.35a3,3,0,0,1,.84.28c-.2,4.25-.85,8.36-3.85,11.69-.48-1.08-.92-2.17-1.45-3.22C194.84,130.46,195.65,128.86,202.16,127.35Z" transform="translate(-30.85 -29.04)"/><path class="cls-2" d="M127.83,32.16l-14.55,4.36C115.93,31.56,122.55,29.57,127.83,32.16Z" transform="translate(-30.85 -29.04)"/><path class="cls-5" d="M231.59,79.7c-.44.86-.9,1.72-1.32,2.6-.94,2-2.67,2.15-4.53,2-1.09-.08-2-.6-2-1.75,0-2,1.59-2.48,3.06-3.16.66-.31,1.12-1,1.68-1.57l2.15.08Z" transform="translate(-30.85 -29.04)"/><path class="cls-5" d="M112.1,37.81c-.3,2.32-1.95,2.37-3.73,2.23l1.37-2.23Z" transform="translate(-30.85 -29.04)"/><path class="cls-2" d="M144.45,31.86l-6-.08C140.45,30,142.46,30,144.45,31.86Z" transform="translate(-30.85 -29.04)"/><path class="cls-2" d="M152.81,32.69a2.32,2.32,0,0,1-2.58-.49C151.48,30.25,152.29,30.74,152.81,32.69Z" transform="translate(-30.85 -29.04)"/><path class="cls-5" d="M146.65,116.91c-5-2.74-10.09,1.4-15.23-.12-2.19-.64-4.59-.67-6.72-1.72-1.43-2.21-4.37-4.13-2.23-7.21,1.89-2.74,5.09-2.22,7.66-1.52a17.08,17.08,0,0,0,8.1.23,10.83,10.83,0,0,1,11.05,4.1Q148,113.79,146.65,116.91Z" transform="translate(-30.85 -29.04)"/><path class="cls-5" d="M119.12,67.83C125,69,130.85,70.25,137,70.19c12.35-.14,24.4-.71,35.14-7.83.9-.59,2.27-.47,3.42-.67-5.79,6.89-14.07,8.29-22.19,9.69a72,72,0,0,1-30-1C121.82,70,119.76,70,119.12,67.83Z" transform="translate(-30.85 -29.04)"/><path class="cls-5" d="M213.89,71c2.39,6.4.7,9.35-5.54,9.68-1.89.1-3.69-.38-4.72-2s.28-3,1.38-4.12a5.3,5.3,0,0,0,1.68-3.69Z" transform="translate(-30.85 -29.04)"/><path class="cls-5" d="M108.43,40a18.81,18.81,0,0,1-1.26,3.26c-5.66,9.26-4.72,13.53,4.39,19.68,2,1.33,4.26,2.27,5.32,4.64-4.07-.57-7.34-2.68-10.49-5.17A13.32,13.32,0,0,1,108.43,40Z" transform="translate(-30.85 -29.04)"/><path class="cls-5" d="M165.93,102.39c.26,3.06.3,5.86-3.74,6.68-2.82.57-5.1.71-5.79-2.81C158.12,101.38,162.09,102.05,165.93,102.39Z" transform="translate(-30.85 -29.04)"/><path class="cls-4" d="M94.9,66.86c0,7.35,3.54,14.14,3,21.48C94.22,81.55,92.49,74.47,94.9,66.86Z" transform="translate(-30.85 -29.04)"/><path class="cls-4" d="M103.37,97.21c3.2,3.22,6.91,5.7,10.24,8.66C108.38,105.2,104.62,102.69,103.37,97.21Z" transform="translate(-30.85 -29.04)"/><path class="cls-5" d="M176.79,60.57c1.49-4,3.76-7.66,4.48-11.93C184.27,54.3,181.45,57.78,176.79,60.57Z" transform="translate(-30.85 -29.04)"/><path class="cls-5" d="M173.12,100c2.91.21,6-.56,10.3,1.28-4.64,1.15-7.62,2.1-10.48-.4A1.51,1.51,0,0,1,173.12,100Z" transform="translate(-30.85 -29.04)"/><path class="cls-4" d="M92.89,64.07V61.5C94,62.35,94.31,63.21,92.89,64.07Z" transform="translate(-30.85 -29.04)"/><path class="cls-5" d="M175.55,61.72l1.28-1.24Z" transform="translate(-30.85 -29.04)"/><path class="cls-5" d="M153.78,128.85c-1.59-1.21-3.09-2.5-3.61-4.56-.07-4,1.45-6.51,5.82-6.29,3.63.19,5.08,2.41,5.2,5.86C161.39,129.57,157.15,128.52,153.78,128.85Z" transform="translate(-30.85 -29.04)"/><path class="cls-5" d="M181.2,117.88c-2.78-.38-6.33-.45-6.57-4.25a3.77,3.77,0,0,1,4.83-3.84c2,.58,6.16-1,5.81,3.72C185.08,116.06,184.91,118.48,181.2,117.88Z" transform="translate(-30.85 -29.04)"/><path class="cls-5" d="M208.67,89.21c4.06-.07,7.14.73,6.86,3.33-.47,4.14-5,3.85-8,4.67-2.09.57-3.26-1.26-3.11-3.32C204.68,90.45,207.07,89.33,208.67,89.21Z" transform="translate(-30.85 -29.04)"/><path class="cls-5" d="M186.87,97.61c-2.35-.06-4.87,0-5.06-3-.15-2.23,1.66-3,3.66-3,2.7-.07,5,1,5.24,3.78S188.37,97.33,186.87,97.61Z" transform="translate(-30.85 -29.04)"/><path class="cls-5" d="M178.51,129.7c-1.85-.3-2.81-1.3-2.72-2.88.1-1.88,1.36-2.8,3.21-2.8s2.52,1.08,2.38,2.72A2.9,2.9,0,0,1,178.51,129.7Z" transform="translate(-30.85 -29.04)"/><path class="cls-5" d="M225.94,97.53c-1.42-.06-2.53-.57-2.26-2.06a4,4,0,0,1,3.94-3.64c1.44,0,1.84,1.27,1.72,2.52A3.24,3.24,0,0,1,225.94,97.53Z" transform="translate(-30.85 -29.04)"/><path class="cls-5" d="M204.5,103.49c1.24.25,3.18-.13,2.63,2.08a3.4,3.4,0,0,1-3.56,2.58,2.46,2.46,0,0,1-2.64-2.61C201,103.21,203,103.67,204.5,103.49Z" transform="translate(-30.85 -29.04)"/><path class="cls-5" d="M197.6,114.1c2.08,1.5,2.57,3.69,2.64,6.06-2.17.12-4.47.38-5.26-2.39C194.36,115.57,195.56,114.49,197.6,114.1Z" transform="translate(-30.85 -29.04)"/><path class="cls-5" d="M184.56,101.93c2.09-1.24,3.3-.62,4.81.76C187.42,104,186.12,103.68,184.56,101.93Z" transform="translate(-30.85 -29.04)"/><path class="cls-5" d="M194.54,108.49c-.26-.45-.52-.9-.75-1.37,0,0,.26-.22.41-.33.21.49.41,1,.62,1.46Z" transform="translate(-30.85 -29.04)"/><path class="cls-5" d="M194.82,108.25c.26.43.53.86.75,1.3,0,0-.24.22-.38.33-.21-.47-.43-.93-.65-1.39Z" transform="translate(-30.85 -29.04)"/><path class="cls-6" d="M118.05,58.15c-3.42-.08-6,.16-7.24-3-1.12-3-2-6.09.53-8.35a32.26,32.26,0,0,1,20.71-9c2.45-.11,5,.78,5.87,3.25,1,2.82-1.39,4.57-3.4,5.58-4.37,2.21-7.7,5.52-11,9C121.83,57.45,119.84,58.55,118.05,58.15Z" transform="translate(-30.85 -29.04)"/><path class="cls-4" d="M137.57,134c-3.23,2.19-6.08,1.39-8.69-1.34Z" transform="translate(-30.85 -29.04)"/><path class="cls-2" d="M99.05,114.19l2.24.44c-.14.23-.37.68-.42.66-.68-.26-1.34-.58-2-.89Z" transform="translate(-30.85 -29.04)"/><path class="cls-4" d="M87.21,108.06c2,.48,3.39,1.75,4.92,4.26-3.32-.08-4.8-1.27-5.46-3.72A6.88,6.88,0,0,0,87.21,108.06Z" transform="translate(-30.85 -29.04)"/><path class="cls-4" d="M31.27,77.6S42.59,84.85,52.6,88.78V83.72L36.45,75.26H32Z" transform="translate(-30.85 -29.04)"/><path class="cls-7" d="M146.34,117.07a29.05,29.05,0,0,1-3.58-4.43,28.16,28.16,0,0,1-2.75-5,28.65,28.65,0,0,1,3.58,4.44A29.09,29.09,0,0,1,146.34,117.07Z" transform="translate(-30.85 -29.04)"/><path class="cls-7" d="M133.23,117.07a32.34,32.34,0,0,1-4.13-4.4,31.21,31.21,0,0,1-3.35-5,31.84,31.84,0,0,1,4.13,4.41A32.49,32.49,0,0,1,133.23,117.07Z" transform="translate(-30.85 -29.04)"/><path class="cls-7" d="M75.75,128.85A51.85,51.85,0,0,1,66.5,118a43.16,43.16,0,0,1,5,5.11A44.63,44.63,0,0,1,75.75,128.85Z" transform="translate(-30.85 -29.04)"/><path class="cls-7" d="M95,140a41.65,41.65,0,0,1-12.61-2.64,37.11,37.11,0,0,1,6.41.83A38.14,38.14,0,0,1,95,140Z" transform="translate(-30.85 -29.04)"/><path class="cls-7" d="M132.55,106.83a13.23,13.23,0,0,1,2.84,1.48,15.24,15.24,0,0,1,2.48,2.06A10.82,10.82,0,0,1,139.8,113a6.31,6.31,0,0,1,.79,3.13,12.06,12.06,0,0,0-1.45-2.73,20.84,20.84,0,0,0-2-2.33C135.73,109.58,134.14,108.26,132.55,106.83Z" transform="translate(-30.85 -29.04)"/></svg>