<?xml version="1.0" encoding="utf-8"?>
<!-- Generator: Adobe Illustrator 26.0.0, SVG Export Plug-In . SVG Version: 6.00 Build 0)  -->
<svg version="1.1" id="Capa_1" xmlns="http://www.w3.org/2000/svg" xmlns:xlink="http://www.w3.org/1999/xlink" x="0px" y="0px"
	 viewBox="0 0 72 72" style="enable-background:new 0 0 72 72;" xml:space="preserve">
<style type="text/css">
	.st0{fill:#FDFDFC;}
</style>
<path class="st0" d="M54.5,0.9h-37C8.3,0.9,0.9,8.3,0.9,17.5v37.1c0,9.1,7.4,16.5,16.5,16.5h37.1c9.1,0,16.5-7.4,16.5-16.5V17.5
	C71.1,8.3,63.7,0.9,54.5,0.9z M59.3,31.5c-8.4-0.2-12.7-4.3-12.7-4.3l0.2,19.2c-1.6,12.4-11.6,16.1-17.6,16.4
	c-11,0.4-17.2-9.1-16.6-17.2C14.1,27,32,28.6,32,28.6l-0.1,9.7c-9.3-0.4-10.2,5.5-10.2,7.3c0.3,6.3,4.9,7.6,7.6,7.6
	c7.2-0.1,7.9-6.3,7.9-6.3V9.2h9.3c0.8,13,12.7,12.7,12.7,12.7v9.6H59.3z"/>
</svg>
