<?xml version="1.0" encoding="utf-8"?>
<!-- Generator: Adobe Illustrator 26.0.0, SVG Export Plug-In . SVG Version: 6.00 Build 0)  -->
<svg version="1.1" id="Capa_1" xmlns="http://www.w3.org/2000/svg" xmlns:xlink="http://www.w3.org/1999/xlink" x="0px" y="0px"
	 viewBox="0 0 72 72" style="enable-background:new 0 0 72 72;" xml:space="preserve">
<style type="text/css">
	.st0{fill:#FDFDFC;}
</style>
<path class="st0" d="M54.7,0.9H17.3C8.3,0.9,1,8.2,1,17.2v37.5C1,63.7,8.3,71,17.3,71h37.5c9,0,16.3-7.3,16.3-16.3V17.3
	C71.1,8.2,63.8,0.9,54.7,0.9z M40.9,62.9v-19l6-0.3l1.3-7.5h-7.3L40.8,30c0.1-3.4,3.5-3.4,3.5-3.4h3.9V19c0,0-6-0.2-8,0
	c-6.6,0.6-8.9,6.7-9,10c-0.1,1.8,0,7.1,0,7.1h-6.5v7.7h6.5v19C18.4,60.6,8.8,49.5,8.8,36.2C8.8,21.1,21,9,36,9s27.2,12.2,27.2,27.2
	C63.2,49.5,53.6,60.6,40.9,62.9z"/>
</svg>
