<?xml version="1.0" encoding="utf-8"?>
<!-- Generator: Adobe Illustrator 26.0.0, SVG Export Plug-In . SVG Version: 6.00 Build 0)  -->
<svg version="1.1" id="Capa_1" xmlns="http://www.w3.org/2000/svg" xmlns:xlink="http://www.w3.org/1999/xlink" x="0px" y="0px"
	 viewBox="0 0 72 72" style="enable-background:new 0 0 72 72;" xml:space="preserve">
<style type="text/css">
	.st0{fill:#FDFDFC;}
</style>
<path class="st0" d="M54.5,0.9h-37C8.3,0.9,0.9,8.3,0.9,17.5v37.1c0,9.1,7.4,16.5,16.5,16.5h37.1c9.1,0,16.5-7.4,16.5-16.5V17.5
	C71.1,8.3,63.7,0.9,54.5,0.9z M58.9,24.5c-1.1,35.7-33.4,35.1-33.4,35.1c-13.2,0.1-18.1-5.5-18.1-5.5c8.6,1.5,16.4-4.6,16.4-4.6
	c-9.7-1.7-10.1-8.9-10.1-8.9c2,0.6,4.2,0,4.2,0c-9-3-8.5-11.7-8.5-11.7c4,2,4.9,1.3,4.9,1.3c-8.4-6.6-3.4-15.5-3.4-15.5
	c11.2,12.4,24.3,12.2,24.3,12.2C33.7,13,45.9,12.3,45.9,12.3c5.6-0.8,9.8,3.7,9.8,3.7c4.9-0.3,7.3-2.8,7.3-2.8
	c-0.3,3.2-4.5,6.6-4.5,6.6c2.1,0,6.2-1.7,6.2-1.7C64.4,19.7,58.9,24.5,58.9,24.5z"/>
</svg>
