<?xml version="1.0" encoding="utf-8"?>
<!-- Generator: Adobe Illustrator 26.0.0, SVG Export Plug-In . SVG Version: 6.00 Build 0)  -->
<svg version="1.1" id="Capa_1" xmlns="http://www.w3.org/2000/svg" xmlns:xlink="http://www.w3.org/1999/xlink" x="0px" y="0px"
	 viewBox="0 0 72 72" style="enable-background:new 0 0 72 72;" xml:space="preserve">
<style type="text/css">
	.st0{fill:#FDFDFC;}
</style>
<g>
	<path class="st0" d="M48.6,12.9H23.4c-5.8,0-10.5,4.7-10.5,10.5v25.1c0,5.8,4.7,10.5,10.5,10.5h25.1C54.3,59,59,54.3,59,48.5V23.4
		C59.1,17.6,54.4,12.9,48.6,12.9z M36.2,51c-8.1,0-14.6-6.6-14.6-14.6s6.6-14.6,14.6-14.6s14.6,6.6,14.6,14.6S44.2,51,36.2,51z
		 M50.8,24.7c-1.8,0-3.3-1.5-3.3-3.3s1.5-3.3,3.3-3.3s3.3,1.5,3.3,3.3S52.6,24.7,50.8,24.7z"/>
	<path class="st0" d="M54.5,0.9h-37C8.3,0.9,0.9,8.3,0.9,17.5v37.1c0,9.1,7.4,16.5,16.5,16.5h37.1c9.1,0,16.5-7.4,16.5-16.5V17.5
		C71.1,8.3,63.7,0.9,54.5,0.9z M63.3,48.6c0,8.1-6.6,14.7-14.7,14.7H23.4c-8.1,0-14.7-6.6-14.7-14.7V23.4c0-8.1,6.6-14.7,14.7-14.7
		h25.1c8.1,0,14.7,6.6,14.7,14.7L63.3,48.6L63.3,48.6z"/>
	<path class="st0" d="M36,25.6c-5.8,0-10.4,4.7-10.4,10.4S30.2,46.4,36,46.4S46.4,41.7,46.4,36S41.8,25.6,36,25.6z"/>
</g>
</svg>
